<svg viewBox="0 0 1120 760" role="img" aria-label="Jarvis Voice Runtime Architecture — Live repository map: entrypoints, orchestration core, tools, providers, state, and artifacts (architecture diagram)" width="1120" height="760" xmlns="http://www.w3.org/2000/svg"><style>@font-face { font-family: 'JetBrains Mono'; font-weight: 400; src: local('JetBrains Mono'), local('JetBrainsMono-Regular'); }
@font-face { font-family: 'JetBrains Mono'; font-weight: 500; src: local('JetBrains Mono'), local('JetBrainsMono-Regular'); }
@font-face { font-family: 'JetBrains Mono'; font-weight: 600; src: local('JetBrains Mono'), local('JetBrainsMono-Regular'); }
@font-face { font-family: 'JetBrains Mono'; font-weight: 700; src: local('JetBrains Mono'), local('JetBrainsMono-Regular'); }
svg { font-family: 'JetBrains Mono', ui-monospace, SFMono-Regular, Menlo, Consolas, 'DejaVu Sans Mono', 'Liberation Mono', 'Noto Sans Mono CJK SC', 'PingFang SC', 'Hiragino Sans GB', 'Microsoft YaHei', monospace; }
:root, [data-theme="dark"] { --bg: #020617; --grid: #1e293b; --text: #ffffff; --text-muted: #94a3b8; --text-dim: #475569; --text-faint: #7d8da1; --panel: rgba(15, 23, 42, 0.5); --panel-border: #1e293b; --lane-fill: rgba(15, 23, 42, 0.22); --lane-stroke: #334155; --arrow: #64748b; --arrow-emphasis: #34d399; --mask: #0f172a; --frontend-fill: rgba(8, 51, 68, 0.4); --frontend-stroke: #22d3ee; --backend-fill: rgba(6, 78, 59, 0.4); --backend-stroke: #34d399; --database-fill: rgba(76, 29, 149, 0.4); --database-stroke: #a78bfa; --cloud-fill: rgba(120, 53, 15, 0.3); --cloud-stroke: #fbbf24; --security-fill: rgba(136, 19, 55, 0.4); --security-stroke: #fb7185; --messagebus-fill: rgba(251, 146, 60, 0.3); --messagebus-stroke: #fb923c; --external-fill: rgba(30, 41, 59, 0.5); --external-stroke: #94a3b8; --toolbar-bg: rgba(15, 23, 42, 0.8); --toolbar-border: #334155; --toolbar-text: #e2e8f0; --toolbar-hover: rgba(15, 23, 42, 0.95); --toolbar-menu-bg: #0f172a; }
[data-theme="light"] { --bg: #f8fafc; --grid: #e2e8f0; --text: #0f172a; --text-muted: #64748b; --text-dim: #94a3b8; --text-faint: #64748b; --panel: #ffffff; --panel-border: #e2e8f0; --lane-fill: rgba(248, 250, 252, 0.65); --lane-stroke: #cbd5e1; --arrow: #94a3b8; --arrow-emphasis: #059669; --mask: #ffffff; --frontend-fill: rgba(34, 211, 238, 0.15); --frontend-stroke: #0891b2; --backend-fill: rgba(52, 211, 153, 0.18); --backend-stroke: #059669; --database-fill: rgba(167, 139, 250, 0.2); --database-stroke: #7c3aed; --cloud-fill: rgba(251, 191, 36, 0.18); --cloud-stroke: #d97706; --security-fill: rgba(251, 113, 133, 0.15); --security-stroke: #e11d48; --messagebus-fill: rgba(251, 146, 60, 0.15); --messagebus-stroke: #ea580c; --external-fill: rgba(148, 163, 184, 0.18); --external-stroke: #64748b; --toolbar-bg: rgba(255, 255, 255, 0.92); --toolbar-border: #cbd5e1; --toolbar-text: #334155; --toolbar-hover: #ffffff; --toolbar-menu-bg: #ffffff; }
svg { width: 100%; min-width: min(900px, 100%); display: block; }
.c-grid { stroke: var(--grid); fill: none; }
.c-mask { fill: var(--mask); stroke: none; }
.c-frontend { fill: var(--frontend-fill); stroke: var(--frontend-stroke); }
.c-backend { fill: var(--backend-fill); stroke: var(--backend-stroke); }
.c-database { fill: var(--database-fill); stroke: var(--database-stroke); }
.c-cloud { fill: var(--cloud-fill); stroke: var(--cloud-stroke); }
.c-security { fill: var(--security-fill); stroke: var(--security-stroke); }
.c-messagebus { fill: var(--messagebus-fill); stroke: var(--messagebus-stroke); }
.c-external { fill: var(--external-fill); stroke: var(--external-stroke); }
.t-primary { fill: var(--text); }
.t-muted { fill: var(--text-muted); }
.t-dim { fill: var(--text-dim); }
.t-frontend { fill: var(--frontend-stroke); }
.t-backend { fill: var(--backend-stroke); }
.t-database { fill: var(--database-stroke); }
.t-cloud { fill: var(--cloud-stroke); }
.t-security { fill: var(--security-stroke); }
.t-messagebus { fill: var(--messagebus-stroke); }
.t-external { fill: var(--external-stroke); }
.a-default { stroke: var(--arrow); fill: none; }
.a-emphasis { stroke: var(--arrow-emphasis); fill: none; }
.a-security { stroke: var(--security-stroke); fill: none; stroke-dasharray: 5px, 5px; }
.a-dashed { stroke: var(--database-stroke); fill: none; stroke-dasharray: 4px, 4px; }
.m-default { fill: var(--arrow); }
.m-emphasis { fill: var(--arrow-emphasis); }
.m-security { fill: var(--security-stroke); }
.m-dashed { fill: var(--database-stroke); }
.c-security-group { fill: transparent; stroke: var(--security-stroke); stroke-dasharray: 4px, 4px; }
.c-region { fill: rgba(251, 191, 36, 0.05); stroke: var(--cloud-stroke); stroke-dasharray: 8px, 4px; }
.c-lane { fill: var(--lane-fill); stroke: var(--lane-stroke); stroke-dasharray: 6px, 6px; }
svg[data-animation="trace"] [data-animate="edge"] { stroke-dasharray: 10px, 8px; stroke-dashoffset: 54px; animation-name: archify-edge-flow; animation-duration: 2.4s; animation-timing-function: linear; animation-iteration-count: infinite; animation-direction: normal; animation-fill-mode: none; animation-play-state: running; animation-delay: calc(var(--step, 0) * 160ms); }
svg[data-animation="trace"] [data-animate="node"] { transform-box: fill-box; transform-origin: center center 0px; animation-name: archify-node-pulse; animation-duration: 3.6s; animation-timing-function: ease-in-out; animation-iteration-count: infinite; animation-direction: normal; animation-fill-mode: none; animation-play-state: running; animation-delay: calc(var(--step, 0) * 160ms); }
:root, svg { --bg: #020617; --grid: #1e293b; --text: #ffffff; --text-muted: #94a3b8; --text-dim: #475569; --text-faint: #7d8da1; --panel: rgba(15, 23, 42, 0.5); --panel-border: #1e293b; --lane-fill: rgba(15, 23, 42, 0.22); --lane-stroke: #334155; --arrow: #64748b; --arrow-emphasis: #34d399; --mask: #0f172a; --frontend-fill: rgba(8, 51, 68, 0.4); --frontend-stroke: #22d3ee; --backend-fill: rgba(6, 78, 59, 0.4); --backend-stroke: #34d399; --database-fill: rgba(76, 29, 149, 0.4); --database-stroke: #a78bfa; --cloud-fill: rgba(120, 53, 15, 0.3); --cloud-stroke: #fbbf24; --security-fill: rgba(136, 19, 55, 0.4); --security-stroke: #fb7185; --messagebus-fill: rgba(251, 146, 60, 0.3); --messagebus-stroke: #fb923c; --external-fill: rgba(30, 41, 59, 0.5); --external-stroke: #94a3b8; --toolbar-bg: rgba(15, 23, 42, 0.8); --toolbar-border: #334155; --toolbar-text: #e2e8f0; --toolbar-hover: rgba(15, 23, 42, 0.95); --toolbar-menu-bg: #0f172a; }
@media (prefers-color-scheme: light) { :root, svg { --bg: #f8fafc; --grid: #e2e8f0; --text: #0f172a; --text-muted: #64748b; --text-dim: #94a3b8; --text-faint: #64748b; --panel: #ffffff; --panel-border: #e2e8f0; --lane-fill: rgba(248, 250, 252, 0.65); --lane-stroke: #cbd5e1; --arrow: #94a3b8; --arrow-emphasis: #059669; --mask: #ffffff; --frontend-fill: rgba(34, 211, 238, 0.15); --frontend-stroke: #0891b2; --backend-fill: rgba(52, 211, 153, 0.18); --backend-stroke: #059669; --database-fill: rgba(167, 139, 250, 0.2); --database-stroke: #7c3aed; --cloud-fill: rgba(251, 191, 36, 0.18); --cloud-stroke: #d97706; --security-fill: rgba(251, 113, 133, 0.15); --security-stroke: #e11d48; --messagebus-fill: rgba(251, 146, 60, 0.15); --messagebus-stroke: #ea580c; --external-fill: rgba(148, 163, 184, 0.18); --external-stroke: #64748b; --toolbar-bg: rgba(255, 255, 255, 0.92); --toolbar-border: #cbd5e1; --toolbar-text: #334155; --toolbar-hover: #ffffff; --toolbar-menu-bg: #ffffff; } }
svg[data-theme="light"] { --bg: #f8fafc; --grid: #e2e8f0; --text: #0f172a; --text-muted: #64748b; --text-dim: #94a3b8; --text-faint: #64748b; --panel: #ffffff; --panel-border: #e2e8f0; --lane-fill: rgba(248, 250, 252, 0.65); --lane-stroke: #cbd5e1; --arrow: #94a3b8; --arrow-emphasis: #059669; --mask: #ffffff; --frontend-fill: rgba(34, 211, 238, 0.15); --frontend-stroke: #0891b2; --backend-fill: rgba(52, 211, 153, 0.18); --backend-stroke: #059669; --database-fill: rgba(167, 139, 250, 0.2); --database-stroke: #7c3aed; --cloud-fill: rgba(251, 191, 36, 0.18); --cloud-stroke: #d97706; --security-fill: rgba(251, 113, 133, 0.15); --security-stroke: #e11d48; --messagebus-fill: rgba(251, 146, 60, 0.15); --messagebus-stroke: #ea580c; --external-fill: rgba(148, 163, 184, 0.18); --external-stroke: #64748b; --toolbar-bg: rgba(255, 255, 255, 0.92); --toolbar-border: #cbd5e1; --toolbar-text: #334155; --toolbar-hover: #ffffff; --toolbar-menu-bg: #ffffff; }
svg[data-theme="dark"] { --bg: #020617; --grid: #1e293b; --text: #ffffff; --text-muted: #94a3b8; --text-dim: #475569; --text-faint: #7d8da1; --panel: rgba(15, 23, 42, 0.5); --panel-border: #1e293b; --lane-fill: rgba(15, 23, 42, 0.22); --lane-stroke: #334155; --arrow: #64748b; --arrow-emphasis: #34d399; --mask: #0f172a; --frontend-fill: rgba(8, 51, 68, 0.4); --frontend-stroke: #22d3ee; --backend-fill: rgba(6, 78, 59, 0.4); --backend-stroke: #34d399; --database-fill: rgba(76, 29, 149, 0.4); --database-stroke: #a78bfa; --cloud-fill: rgba(120, 53, 15, 0.3); --cloud-stroke: #fbbf24; --security-fill: rgba(136, 19, 55, 0.4); --security-stroke: #fb7185; --messagebus-fill: rgba(251, 146, 60, 0.3); --messagebus-stroke: #fb923c; --external-fill: rgba(30, 41, 59, 0.5); --external-stroke: #94a3b8; --toolbar-bg: rgba(15, 23, 42, 0.8); --toolbar-border: #334155; --toolbar-text: #e2e8f0; --toolbar-hover: rgba(15, 23, 42, 0.95); --toolbar-menu-bg: #0f172a; }
rect.c-bg-rect { fill: var(--bg); }
</style><rect width="100%" height="100%" class="c-bg-rect"/>
        <!-- Definitions -->
        <defs>
          <marker id="arrowhead" markerWidth="10" markerHeight="7" refX="9" refY="3.5" orient="auto">
            <polygon points="0 0, 10 3.5, 0 7" class="m-default"/>
          </marker>
          <marker id="arrowhead-emphasis" markerWidth="10" markerHeight="7" refX="9" refY="3.5" orient="auto">
            <polygon points="0 0, 10 3.5, 0 7" class="m-emphasis"/>
          </marker>
          <marker id="arrowhead-security" markerWidth="10" markerHeight="7" refX="9" refY="3.5" orient="auto">
            <polygon points="0 0, 10 3.5, 0 7" class="m-security"/>
          </marker>
          <marker id="arrowhead-dashed" markerWidth="10" markerHeight="7" refX="9" refY="3.5" orient="auto">
            <polygon points="0 0, 10 3.5, 0 7" class="m-dashed"/>
          </marker>
          <pattern id="grid" width="40" height="40" patternUnits="userSpaceOnUse">
            <path d="M 40 0 L 0 0 0 40" class="c-grid" stroke-width="0.5"/>
          </pattern>
        </defs>

        <!-- Background Grid -->
        <rect width="100%" height="100%" fill="url(#grid)"/>

        <!-- Boundaries (behind everything) -->
        <rect x="215" y="50" width="210" height="627" rx="12" class="c-region" stroke-width="1"/>
        <text x="223" y="68" class="t-cloud" font-size="9" font-weight="600">Entrypoint processes</text>

        <rect x="445" y="80" width="445" height="285" rx="12" class="c-region" stroke-width="1"/>
        <text x="453" y="98" class="t-cloud" font-size="9" font-weight="600">Core orchestration</text>

        <rect x="895" y="65" width="215" height="292" rx="12" class="c-region" stroke-width="1"/>
        <text x="903" y="83" class="t-cloud" font-size="9" font-weight="600">Provider and integration edge</text>

        <rect x="680" y="425" width="430" height="252" rx="8" class="c-security-group" stroke-width="1"/>
        <text x="688" y="443" class="t-security" font-size="9" font-weight="600">Repo-local durable state</text>

        <!-- Connection paths (before components for correct z-order) -->
        <path d="M 180 336 L 204.5 336 Q 212.5 336 212.5 328 L 212.5 309 Q 212.5 301 220.5 301 L 245 301" class="a-emphasis" stroke-width="1.8" marker-end="url(#arrowhead-emphasis)"/>
        <path d="M 180 336 L 204.5 336 Q 212.5 336 212.5 344 L 212.5 458 Q 212.5 466 220.5 466 L 245 466" class="a-security" stroke-width="1.5" marker-end="url(#arrowhead-security)"/>
        <path d="M 107.5 300 L 168.25 300 Q 176.25 300 176.25 292 L 176.25 120 Q 176.25 112 184.25 112 L 245 112" class="a-dashed" stroke-width="1.5" marker-end="url(#arrowhead-dashed)"/>
        <path d="M 320 144 L 320 265" class="a-dashed" stroke-width="1.5" marker-end="url(#arrowhead-dashed)"/>
        <path d="M 320 144 L 320 287 L 320 287 L 320 430" class="a-dashed" stroke-width="1.5" marker-end="url(#arrowhead-dashed)"/>
        <path d="M 320 144 L 320 364.5 L 320 364.5 L 320 585" class="a-dashed" stroke-width="1.5" marker-end="url(#arrowhead-dashed)"/>
        <path d="M 395 301 L 433 301 Q 435 301 435 303 L 435 303 Q 435 305 437 305 L 475 305" class="a-emphasis" stroke-width="1.8" marker-end="url(#arrowhead-emphasis)"/>
        <path d="M 395 466 L 427 466 Q 435 466 435 458 L 435 313 Q 435 305 443 305 L 475 305" class="a-emphasis" stroke-width="1.8" marker-end="url(#arrowhead-emphasis)"/>
        <path d="M 395 621 L 465.75 621 Q 473.75 621 473.75 613 L 473.75 353 Q 473.75 345 481.75 345 L 552.5 345" class="a-dashed" stroke-width="1.5" marker-end="url(#arrowhead-dashed)"/>
        <path d="M 552.5 265 L 552.5 182" class="a-dashed" stroke-width="1.5" marker-end="url(#arrowhead-dashed)"/>
        <path d="M 630 305 L 710 305" class="a-emphasis" stroke-width="1.8" marker-end="url(#arrowhead-emphasis)"/>
        <path d="M 630 146 L 699.5 146 Q 707.5 146 707.5 154 L 707.5 257 Q 707.5 265 715.5 265 L 785 265" class="a-dashed" stroke-width="1.5" marker-end="url(#arrowhead-dashed)"/>
        <path d="M 630 305 L 769.5 305 Q 777.5 305 777.5 297 L 777.5 139 Q 777.5 131 785.5 131 L 925 131" class="a-security" stroke-width="1.5" marker-end="url(#arrowhead-security)"/>
        <path d="M 860 305 L 890.5 305 Q 892.5 305 892.5 303 L 892.5 303 Q 892.5 301 894.5 301 L 925 301" class="a-default" stroke-width="1.5" marker-end="url(#arrowhead)"/>
        <path d="M 860 305 L 884.5 305 Q 892.5 305 892.5 313 L 892.5 483 Q 892.5 491 900.5 491 L 925 491" class="a-default" stroke-width="1.5" marker-end="url(#arrowhead)"/>
        <path d="M 785 345 L 785 585" class="a-dashed" stroke-width="1.5" marker-end="url(#arrowhead-dashed)"/>
        <path d="M 395 466 L 652 466 Q 660 466 660 474 L 660 483 Q 660 491 668 491 L 925 491" class="a-default" stroke-width="1.5" marker-end="url(#arrowhead)"/>
        <path d="M 320 337 L 507 337 Q 515 337 515 345 L 515 613 Q 515 621 523 621 L 710 621" class="a-dashed" stroke-width="1.5" marker-end="url(#arrowhead-dashed)"/>

        <!-- Components -->
        <rect x="35" y="300" width="145" height="72" rx="6" class="c-mask"/>
        <rect x="35" y="300" width="145" height="72" rx="6" class="c-external" stroke-width="1.5"/>
        <text x="107.5" y="334" class="t-primary" font-size="11" font-weight="600" text-anchor="middle">Users + Integrations</text>
        <text x="107.5" y="350" class="t-muted" font-size="9" text-anchor="middle">browser, CLI, voice, webhooks</text>

        <rect x="245" y="80" width="150" height="64" rx="6" class="c-mask"/>
        <rect x="245" y="80" width="150" height="64" rx="6" class="c-cloud" stroke-width="1.5"/>
        <text x="320" y="110" class="t-primary" font-size="11" font-weight="600" text-anchor="middle">Launchers</text>
        <text x="320" y="126" class="t-muted" font-size="9" text-anchor="middle">bin/start, Docker Compose</text>

        <rect x="245" y="265" width="150" height="72" rx="6" class="c-mask"/>
        <rect x="245" y="265" width="150" height="72" rx="6" class="c-frontend" stroke-width="1.5"/>
        <text x="320" y="299" class="t-primary" font-size="11" font-weight="600" text-anchor="middle">Web Surfaces</text>
        <text x="320" y="315" class="t-muted" font-size="9" text-anchor="middle">chat, canvas, memory, docs</text>
        <text x="320" y="329" class="t-frontend" font-size="7" text-anchor="middle">:5001/:8890/:5002+</text>

        <rect x="245" y="430" width="150" height="72" rx="6" class="c-mask"/>
        <rect x="245" y="430" width="150" height="72" rx="6" class="c-backend" stroke-width="1.5"/>
        <text x="320" y="464" class="t-primary" font-size="11" font-weight="600" text-anchor="middle">Jarvis API</text>
        <text x="320" y="480" class="t-muted" font-size="9" text-anchor="middle">FastAPI, proactive, query</text>
        <text x="320" y="494" class="t-backend" font-size="7" text-anchor="middle">:8880</text>

        <rect x="245" y="585" width="150" height="72" rx="6" class="c-mask"/>
        <rect x="245" y="585" width="150" height="72" rx="6" class="c-backend" stroke-width="1.5"/>
        <text x="320" y="619" class="t-primary" font-size="11" font-weight="600" text-anchor="middle">Background Services</text>
        <text x="320" y="635" class="t-muted" font-size="9" text-anchor="middle">followups, reminders, tasks</text>

        <rect x="475" y="265" width="155" height="80" rx="6" class="c-mask"/>
        <rect x="475" y="265" width="155" height="80" rx="6" class="c-backend" stroke-width="1.5"/>
        <text x="552.5" y="303" class="t-primary" font-size="11" font-weight="600" text-anchor="middle">Orchestrator Core</text>
        <text x="552.5" y="319" class="t-muted" font-size="9" text-anchor="middle">route, context, response</text>

        <rect x="475" y="110" width="155" height="72" rx="6" class="c-mask"/>
        <rect x="475" y="110" width="155" height="72" rx="6" class="c-messagebus" stroke-width="1.5"/>
        <text x="552.5" y="144" class="t-primary" font-size="11" font-weight="600" text-anchor="middle">Workflow Engine</text>
        <text x="552.5" y="160" class="t-muted" font-size="9" text-anchor="middle">data/workflows/*.json</text>

        <rect x="710" y="265" width="150" height="80" rx="6" class="c-mask"/>
        <rect x="710" y="265" width="150" height="80" rx="6" class="c-backend" stroke-width="1.5"/>
        <text x="785" y="303" class="t-primary" font-size="11" font-weight="600" text-anchor="middle">Tool Runtime</text>
        <text x="785" y="319" class="t-muted" font-size="9" text-anchor="middle">executor, skills, MCP</text>

        <rect x="925" y="95" width="155" height="72" rx="6" class="c-mask"/>
        <rect x="925" y="95" width="155" height="72" rx="6" class="c-cloud" stroke-width="1.5"/>
        <text x="1002.5" y="129" class="t-primary" font-size="11" font-weight="600" text-anchor="middle">AI Providers</text>
        <text x="1002.5" y="145" class="t-muted" font-size="9" text-anchor="middle">xAI, Anthropic, OpenAI, Ollama</text>

        <rect x="925" y="265" width="155" height="72" rx="6" class="c-mask"/>
        <rect x="925" y="265" width="155" height="72" rx="6" class="c-external" stroke-width="1.5"/>
        <text x="1002.5" y="299" class="t-primary" font-size="11" font-weight="600" text-anchor="middle">External Services</text>
        <text x="1002.5" y="315" class="t-muted" font-size="9" text-anchor="middle">search, media, phone, agents</text>

        <rect x="925" y="455" width="155" height="72" rx="6" class="c-mask"/>
        <rect x="925" y="455" width="155" height="72" rx="6" class="c-database" stroke-width="1.5"/>
        <text x="1002.5" y="489" class="t-primary" font-size="11" font-weight="600" text-anchor="middle">Memory + Intel DBs</text>
        <text x="1002.5" y="505" class="t-muted" font-size="9" text-anchor="middle">SQLite cloud/local, insights</text>

        <rect x="710" y="585" width="150" height="72" rx="6" class="c-mask"/>
        <rect x="710" y="585" width="150" height="72" rx="6" class="c-database" stroke-width="1.5"/>
        <text x="785" y="619" class="t-primary" font-size="11" font-weight="600" text-anchor="middle">Artifacts + Logs</text>
        <text x="785" y="635" class="t-muted" font-size="9" text-anchor="middle">canvas, stash, media, audio</text>

        <!-- Connection labels -->
        <rect x="169.6" y="376" width="86.8" height="14" rx="3" class="c-mask"/>
        <text x="213" y="386" class="t-backend" font-size="8" text-anchor="middle">HTTP + WebSocket</text>
        <rect x="171.5" y="403" width="82" height="14" rx="3" class="c-mask"/>
        <text x="212.5" y="413" class="t-security" font-size="8" text-anchor="middle">webhooks / REST</text>
        <rect x="130.45" y="168" width="91.6" height="14" rx="3" class="c-mask"/>
        <text x="176.25" y="178" class="t-messagebus" font-size="8" text-anchor="middle">CLI / voice / TUI</text>



        <rect x="408.4" y="283" width="53.199999999999996" height="14" rx="3" class="c-mask"/>
        <text x="435" y="293" class="t-backend" font-size="8" text-anchor="middle">chat turn</text>
        <rect x="406" y="387.5" width="58" height="14" rx="3" class="c-mask"/>
        <text x="435" y="397.5" class="t-backend" font-size="8" text-anchor="middle">/api/query</text>
        <rect x="427.95" y="487" width="91.6" height="14" rx="3" class="c-mask"/>
        <text x="473.75" y="497" class="t-messagebus" font-size="8" text-anchor="middle">scheduled queries</text>
        <rect x="516.3" y="221" width="72.4" height="14" rx="3" class="c-mask"/>
        <text x="552.5" y="231" class="t-messagebus" font-size="8" text-anchor="middle">explicit /cmd</text>
        <rect x="631.4" y="285" width="77.2" height="14" rx="3" class="c-mask"/>
        <text x="670" y="295" class="t-backend" font-size="8" text-anchor="middle">tool call loop</text>
        <rect x="676.1" y="167.5" width="62.8" height="14" rx="3" class="c-mask"/>
        <text x="707.5" y="177.5" class="t-messagebus" font-size="8" text-anchor="middle">fixed steps</text>
        <rect x="746.1" y="172" width="62.8" height="14" rx="3" class="c-mask"/>
        <text x="777.5" y="182" class="t-security" font-size="8" text-anchor="middle">router + QA</text>
        <rect x="865.9" y="283" width="53.199999999999996" height="14" rx="3" class="c-mask"/>
        <text x="892.5" y="293" class="t-muted" font-size="8" text-anchor="middle">tool APIs</text>
        <rect x="832.3" y="400" width="120.39999999999999" height="14" rx="3" class="c-mask"/>
        <text x="892.5" y="410" class="t-muted" font-size="8" text-anchor="middle">memory + insight writes</text>
        <rect x="736.8" y="361" width="96.39999999999999" height="14" rx="3" class="c-mask"/>
        <text x="785" y="371" class="t-messagebus" font-size="8" text-anchor="middle">files, media, logs</text>
        <rect x="604.6" y="434.5" width="110.8" height="14" rx="3" class="c-mask"/>
        <text x="660" y="444.5" class="t-muted" font-size="8" text-anchor="middle">alerts, tasks, config</text>
        <rect x="462" y="493" width="106" height="14" rx="3" class="c-mask"/>
        <text x="515" y="503" class="t-messagebus" font-size="8" text-anchor="middle">uploads, views, logs</text>

        <!-- Legend -->
        <text x="40" y="731" class="t-primary" font-size="9" font-weight="600">Legend</text>
        <rect x="40" y="736" width="14" height="9" rx="2" class="c-external" stroke-width="1"/>
        <text x="60" y="744" class="t-muted" font-size="8">External</text>
        <rect x="138" y="736" width="14" height="9" rx="2" class="c-cloud" stroke-width="1"/>
        <text x="158" y="744" class="t-muted" font-size="8">Cloud</text>
        <rect x="221" y="736" width="14" height="9" rx="2" class="c-frontend" stroke-width="1"/>
        <text x="241" y="744" class="t-muted" font-size="8">Frontend</text>
        <rect x="319" y="736" width="14" height="9" rx="2" class="c-backend" stroke-width="1"/>
        <text x="339" y="744" class="t-muted" font-size="8">Backend</text>
        <rect x="412" y="736" width="14" height="9" rx="2" class="c-messagebus" stroke-width="1"/>
        <text x="432" y="744" class="t-muted" font-size="8">Message bus</text>
        <rect x="525" y="736" width="14" height="9" rx="2" class="c-database" stroke-width="1"/>
        <text x="545" y="744" class="t-muted" font-size="8">Database</text>
      </svg>